<?xml version="1.0" standalone="no"?>
<!DOCTYPE svg PUBLIC "-//W3C//DTD SVG 20010904//EN"
 "http://www.w3.org/TR/2001/REC-SVG-20010904/DTD/svg10.dtd">
<svg version="1.0" xmlns="http://www.w3.org/2000/svg"
 width="180.000000pt" height="132.000000pt" viewBox="0 0 180.000000 132.000000"
 preserveAspectRatio="xMidYMid meet">
<metadata>
Created by potrace 1.16, written by Peter Selinger 2001-2019
</metadata>
<g transform="translate(0.000000,132.000000) scale(0.100000,-0.100000)"
fill="#000000" stroke="none">
<path d="M270 1152 c-59 -29 -73 -68 -81 -217 -8 -154 -16 -179 -64 -202 -57
-27 -61 -105 -7 -124 51 -18 64 -56 71 -218 8 -162 19 -199 72 -226 34 -18
126 -22 141 -7 5 5 10 26 11 47 1 39 -13 55 -50 55 -12 0 -25 6 -30 13 -4 6
-10 75 -13 152 -5 125 -8 144 -29 179 -13 21 -37 44 -53 51 l-30 12 35 21 c57
33 70 69 77 215 5 111 8 131 25 143 10 8 29 14 41 14 24 0 35 31 27 74 -8 39
-83 49 -143 18z"/>
<path d="M1427 1158 c-14 -10 -18 -24 -15 -53 3 -36 6 -40 37 -46 18 -4 37
-13 42 -21 5 -7 9 -60 9 -118 0 -58 5 -123 10 -145 8 -37 48 -85 81 -98 10 -4
5 -13 -17 -31 -49 -40 -66 -94 -72 -231 -5 -132 -12 -155 -45 -155 -38 0 -49
-14 -45 -61 l3 -44 66 -3 c55 -2 70 1 93 19 45 36 58 80 65 236 8 153 17 180
68 205 24 12 28 19 28 58 0 42 -3 46 -36 62 -19 9 -40 22 -46 30 -6 7 -13 74
-15 149 -5 146 -23 209 -69 237 -32 21 -120 26 -142 10z"/>
<path d="M570 695 l0 -415 25 0 25 0 0 145 0 145 165 0 165 0 0 -55 0 -55 155
0 155 0 0 270 0 270 -145 0 -145 0 0 55 0 55 -200 0 -200 0 0 -415z"/>
</g>
</svg>
